<svg xmlns="http://www.w3.org/2000/svg" viewBox="0 0 96 96" data-thumbnail="mermaid">
  <title>Mermaid</title>
  <rect width="96" height="96" rx="22" fill="#f6f8fa"/>
  <rect x="8" y="22" width="80" height="52" rx="10" fill="#24292f"/>
  <path d="M20 61V35h8l10 12 10-12h8v26h-8V47L38 58 28 47v14H20Z" fill="#fff"/>
  <g fill="#fff">
    <path d="m69 44 3 2-5 11-3-1 5-12Z"/>
    <path d="m74 46 2-2 5 12-3 1-5-11Z"/>
    <rect x="67" y="40" width="11" height="8" rx="2"/>
    <rect x="61" y="56" width="9" height="8" rx="1"/>
    <rect x="75" y="56" width="9" height="8" rx="1"/>
  </g>
</svg>
